<svg id="Layer_1" data-name="Layer 1" xmlns="http://www.w3.org/2000/svg" viewBox="0 0 575.18 595.28"><defs><style>.cls-1{fill:#8a05be;}</style></defs><title>nu_symbol_purple</title><path class="cls-1" d="M276.53,240.41c0-40.89-45.82-66-78.68-66-22,0-35.73,10.78-35.73,28.13v11.07h-9.25c-16.24,0-33.42,17.25-33.42,33.55V371.32A11.65,11.65,0,0,0,131.09,383h30.16c.18,0,.35,0,.53,0a11.63,11.63,0,0,0,11.11-11.59s0-119.89,0-146.94H198a25.13,25.13,0,0,1,25.1,25.11V371.32A11.65,11.65,0,0,0,234.76,383h30.18a11.65,11.65,0,0,0,11.64-11.64C276.59,317.19,276.53,240.41,276.53,240.41ZM133.08,372.19a2.86,2.86,0,0,1-2.86-2.85V247.16c0-10.22,12.49-22.78,22.65-22.78h9.25c0,89.49,0,135.28,0,145a2.87,2.87,0,0,1-2.86,2.85Zm132.73-2.83a2.83,2.83,0,0,1-2.85,2.83H236.74a2.86,2.86,0,0,1-2.85-2.85V249.48A35.87,35.87,0,0,0,198,213.61H172.89V202.47c0-6.46,3.24-17.29,25-17.29,42.08,0,67.91,32.17,67.91,55.23C265.76,240.41,265.82,315.37,265.81,369.36Zm178.27-156H413.93A11.65,11.65,0,0,0,402.29,225V372H377.16a25.13,25.13,0,0,1-25.1-25.1V225a11.65,11.65,0,0,0-11.64-11.64H310.24A11.66,11.66,0,0,0,298.59,225c0,53.13.05,130.92.05,130.92,0,40.89,45.83,66,78.69,66,22,0,35.72-10.78,35.72-28.13V382.74h9.25c16.24,0,33.42-17.24,33.42-33.54V225A11.66,11.66,0,0,0,444.08,213.39Zm-41.8,180.49c0,6.46-3.24,17.29-24.95,17.29-42.08,0-67.92-32.16-67.92-55.22,0,0-.05-74.59-.05-129a2.84,2.84,0,0,1,2.86-2.83h26.21a2.86,2.86,0,0,1,2.86,2.86V346.87a35.87,35.87,0,0,0,35.87,35.87h25.13ZM445,349.2c0,10.21-12.49,22.77-22.65,22.77h-9.25c0-62.5,0-132.55,0-145a2.83,2.83,0,0,1,2.85-2.82H442.1A2.87,2.87,0,0,1,445,227Z"/></svg>